<svg version="1.1" id="Layer_1" xmlns="http://www.w3.org/2000/svg" xmlns:xlink="http://www.w3.org/1999/xlink" x="0px" y="0px"
	 width="100%" viewBox="0 0 1307 816" enable-background="new 0 0 1307 816" xml:space="preserve">
<path fill="#323232" opacity="1.000000" stroke="none" 
	d="
M942.651428,757.548828 
	C936.366943,756.373962 930.082520,755.199158 923.389160,754.036804 
	C910.559143,749.744812 898.138000,745.440430 885.149536,740.831543 
	C878.390991,736.978149 872.199768,733.429199 865.799072,729.620605 
	C859.474854,724.787598 853.360168,720.214294 847.081055,715.368896 
	C845.331421,713.694397 843.746216,712.291992 842.013550,710.587646 
	C837.265686,705.490723 832.665283,700.695679 827.955200,695.605835 
	C826.893433,694.209106 825.941467,693.107178 824.866943,691.692566 
	C816.203430,678.200684 807.662476,665.021484 799.038025,651.497253 
	C796.042297,645.034912 793.130005,638.917603 790.185425,632.428162 
	C787.853516,625.982056 785.553955,619.907959 783.214600,613.447266 
	C781.378479,607.018127 779.582092,600.975769 777.792236,594.552063 
	C776.259216,588.085388 774.719666,581.999939 773.173889,575.491211 
	C772.461426,571.373474 771.755188,567.679077 771.084595,563.577026 
	C770.743469,560.781006 770.366577,558.392517 770.045410,555.570679 
	C769.400818,549.091492 768.700500,543.045715 768.083618,536.537720 
	C767.957092,529.757874 767.747131,523.440308 767.637329,516.656189 
	C767.866394,510.145020 767.995422,504.100372 768.248901,497.654633 
	C768.919922,491.167328 769.466492,485.081055 770.184204,478.629089 
	C772.867859,465.497070 775.380310,452.730774 778.024048,439.601044 
	C779.801086,433.164093 781.446960,427.090607 783.350586,420.760101 
	C785.723694,414.329590 787.839111,408.156097 790.125977,401.711365 
	C790.508667,400.622101 790.719910,399.804047 791.240356,398.807983 
	C793.740601,393.439606 795.931641,388.249268 798.370483,382.839996 
	C798.953613,381.809418 799.289062,380.997742 799.811890,379.919495 
	C802.954651,373.747223 805.909973,367.841492 808.865295,361.935760 
	C808.220642,361.456940 807.575928,360.978088 806.931274,360.499268 
	C801.632446,365.670197 796.333679,370.841125 790.788818,376.101074 
	C790.369263,376.482147 790.195740,376.774139 789.728394,377.197754 
	C788.932190,378.210724 788.429688,379.092102 787.677917,380.039459 
	C787.260742,380.394470 787.092957,380.683502 786.652466,381.068115 
	C785.911926,381.756897 785.444031,382.350128 784.643677,383.025452 
	C779.850891,388.025513 775.390564,392.943512 770.669067,398.007568 
	C769.897827,398.996277 769.387817,399.838928 768.564453,400.826447 
	C763.104431,407.635834 757.957825,414.300354 752.555847,421.060425 
	C752.208130,421.493958 752.115845,421.831909 751.745850,422.341919 
	C747.569031,428.383698 743.670105,434.253387 739.492432,440.294708 
	C736.883301,444.336304 734.552795,448.206268 732.005737,452.362122 
	C731.167419,454.392059 730.545593,456.136139 729.619934,458.053345 
	C725.484436,465.113892 721.652771,472.001373 717.554749,479.107422 
	C715.846252,482.547333 714.404175,485.768646 712.687622,489.198181 
	C710.968201,492.609222 709.523254,495.812012 707.863892,499.298950 
	C705.345215,504.963745 703.040955,510.344421 700.466919,515.965820 
	C695.461304,529.469421 690.725464,542.732300 685.748657,556.268311 
	C683.638184,563.021729 681.768860,569.502075 679.626465,576.224426 
	C677.688171,582.679688 676.022949,588.892944 674.249451,595.455566 
	C673.983337,596.519348 673.825500,597.233704 673.417480,598.206909 
	C671.930847,603.513794 670.694336,608.561951 669.278931,613.942932 
	C667.748962,620.511902 666.397827,626.747986 664.889160,633.349365 
	C663.552979,640.164124 662.374207,646.613525 661.066040,653.448120 
	C659.979614,659.880981 659.022705,665.928711 657.947998,672.375488 
	C657.189819,679.170227 656.549438,685.565796 655.820801,692.382324 
	C655.499512,697.205078 655.266418,701.606995 654.612915,706.050110 
	C651.343018,706.809631 650.246399,705.362366 649.965271,702.762512 
	C649.573914,699.143311 649.104919,695.532532 648.708191,691.517212 
	C647.822937,684.747253 646.898682,678.378113 646.028320,671.575562 
	C645.261536,665.066345 644.440796,658.990479 643.634766,652.517578 
	C642.412964,646.083374 641.176453,640.046265 640.091064,633.600220 
	C639.495605,629.460693 638.748962,625.730042 638.039429,621.595825 
	C637.663208,618.813293 637.249939,616.434143 636.853516,613.657349 
	C635.508057,607.151123 634.145813,601.042603 632.795349,594.552246 
	C631.223816,588.105347 629.640503,582.040161 628.064819,575.577148 
	C626.322449,568.768127 624.572510,562.356995 622.807983,555.572754 
	C621.489014,551.146423 620.184631,547.093201 618.913330,542.750366 
	C618.649658,541.985291 618.353027,541.509827 618.038879,540.786011 
	C618.021362,540.537659 617.830566,540.077637 617.857605,539.738098 
	C617.510742,538.574951 617.136841,537.751343 616.749268,536.566956 
	C614.345093,529.673645 611.954407,523.141174 609.500977,516.239990 
	C606.470215,509.496918 603.357605,503.184814 600.576965,496.729675 
	C598.058350,490.882782 595.901855,484.879852 593.460327,478.591980 
	C590.170227,472.168457 587.005554,466.098663 583.772827,459.707520 
	C582.566406,457.559479 581.428162,455.732819 580.205933,453.554932 
	C577.137329,448.289032 574.152649,443.374329 571.127319,438.133484 
	C567.921265,432.932129 564.755859,428.056885 561.450806,422.869690 
	C560.911438,422.018005 560.511658,421.478333 560.028809,420.605286 
	C555.385193,414.157623 550.824768,408.043274 546.149292,401.605286 
	C544.381775,399.339935 542.729248,397.398224 540.997803,395.149689 
	C537.446655,390.867279 533.974365,386.891724 530.345398,382.598175 
	C527.470276,379.471832 524.751770,376.663422 521.920654,373.544464 
	C517.869507,369.496124 513.930908,365.758392 509.886475,361.851807 
	C509.659302,361.779114 509.538025,361.875244 509.416718,361.971375 
	C509.629974,361.950500 509.843231,361.929657 509.817902,362.240204 
	C512.597168,369.072723 515.615051,375.573822 518.699097,382.450897 
	C520.175842,385.889587 521.586487,388.952301 522.998962,392.381226 
	C524.355347,395.840027 525.709778,398.932617 527.084106,402.385986 
	C529.611572,409.255707 532.119080,415.764618 534.684448,422.656097 
	C536.555420,428.566284 538.368347,434.093872 540.223389,439.758606 
	C540.265442,439.895721 540.549683,439.934784 540.380981,440.279663 
	C541.927612,447.105164 543.642944,453.585815 545.392334,460.503265 
	C546.607300,466.964142 547.788086,472.988220 548.941406,479.440857 
	C549.656860,485.927338 550.399841,491.985291 551.080872,498.483093 
	C551.396851,504.932770 551.774780,510.942566 552.101074,517.421387 
	C552.017090,524.254089 551.984741,530.617859 551.838257,537.387024 
	C551.229431,543.819580 550.734741,549.846741 550.125854,556.237793 
	C549.047363,563.081482 548.083069,569.561340 546.997314,576.422668 
	C545.545288,582.865479 544.214722,588.926819 542.639893,595.241577 
	C541.967041,597.340759 541.538391,599.186462 540.999573,601.278442 
	C540.877441,601.704285 540.865540,601.883850 540.622803,602.334839 
	C540.552368,603.200256 540.712830,603.794312 540.485168,604.451782 
	C539.070923,607.674622 538.044800,610.833862 536.778809,614.264893 
	C534.327332,620.489258 532.115723,626.441772 529.600098,632.606506 
	C527.829468,635.868042 526.362915,638.917419 524.652100,642.130005 
	C524.234558,642.846008 524.061279,643.398804 523.602844,644.177795 
	C522.285706,646.951477 521.602478,649.719666 520.156372,652.005066 
	C515.803467,658.884460 511.153534,665.575989 506.334991,672.442017 
	C504.569214,674.573730 503.087891,676.604065 501.356445,678.856201 
	C497.660980,683.371399 494.215637,687.664734 490.465942,692.074768 
	C487.742096,694.771790 485.322571,697.352173 482.615448,700.097534 
	C478.892883,703.521423 475.457947,706.780273 471.713745,710.160339 
	C469.259094,712.467163 467.113739,714.652771 464.611572,716.881470 
	C458.730530,720.838623 453.206238,724.752563 447.407227,728.716553 
	C446.745972,729.130005 446.359436,729.493408 445.644897,729.972839 
	C439.196075,733.701172 433.075317,737.313416 426.602051,740.993042 
	C420.834442,743.712952 415.419342,746.365417 409.709930,749.032471 
	C408.901611,749.297119 408.387604,749.547302 407.873596,749.797485 
	C401.782867,751.806030 395.692139,753.814575 388.881836,755.985046 
	C382.003265,757.609741 375.844208,759.072510 369.268066,760.555847 
	C362.883362,761.439575 356.915741,762.302795 350.486633,763.107056 
	C343.931366,763.244385 337.837616,763.440552 331.743896,763.636719 
	C325.752441,763.132141 319.761017,762.627502 312.977173,762.061829 
	C304.207306,759.886414 302.454224,761.525391 301.649689,750.737000 
	C301.626984,750.432190 301.383301,750.143799 301.299011,749.392578 
	C300.946838,742.647644 300.538300,736.357971 300.214417,729.609131 
	C300.432556,723.129150 300.566040,717.108337 300.801239,710.641113 
	C301.513672,704.102783 302.124390,698.010803 302.858582,691.524231 
	C304.047180,684.764404 305.112335,678.399231 306.417450,671.748230 
	C308.129730,665.318604 309.602051,659.174805 311.223907,652.711060 
	C311.908356,650.592285 312.443298,648.793518 313.229248,646.739502 
	C315.026947,642.008179 316.573639,637.532104 318.384277,632.821655 
	C321.142151,626.775940 323.636078,620.964539 326.398499,614.931030 
	C328.471313,610.885132 330.275665,607.061462 332.352051,603.016968 
	C334.159424,599.884338 335.694763,596.972595 337.506897,593.872925 
	C341.166077,588.043213 344.548401,582.401367 348.204590,576.612488 
	C349.396973,575.077942 350.315460,573.690491 351.520721,572.120850 
	C355.926117,566.663696 360.044678,561.388794 364.449341,555.943237 
	C366.883148,553.195496 369.030884,550.618591 371.495361,547.949219 
	C375.271362,544.280090 378.730652,540.703430 382.490967,536.996704 
	C384.876068,534.934387 386.960175,533.002014 389.359924,530.952271 
	C394.733826,526.692139 399.792023,522.549438 405.147919,518.235718 
	C406.342865,517.442932 407.240082,516.821167 408.466125,516.098328 
	C415.287903,511.746765 421.780884,507.496277 428.600739,503.142731 
	C431.563354,501.385651 434.199127,499.731689 437.191956,498.025940 
	C440.365082,496.306030 443.181122,494.637848 446.373749,492.949890 
	C447.903595,492.644958 449.056824,492.359802 451.512115,491.752686 
	C449.333740,494.052856 448.062744,495.394958 446.582306,496.779297 
	C446.080414,496.958221 445.936584,497.187988 445.633820,497.692810 
	C439.149506,502.778870 432.972717,507.682922 426.503113,512.738770 
	C424.783600,514.193115 423.356934,515.495789 421.603333,516.901978 
	C416.803467,521.267517 412.330536,525.529480 407.554138,529.933472 
	C405.131531,532.361938 403.012421,534.648438 400.596558,537.085388 
	C393.462555,545.800049 386.625305,554.364197 379.507324,563.105225 
	C376.620392,567.484985 374.014160,571.687805 371.176086,576.144653 
	C370.135193,577.759033 369.326080,579.119507 368.310364,580.763672 
	C365.996857,585.285217 363.890015,589.522949 361.506836,593.986084 
	C358.639771,600.675110 356.049042,607.138794 353.265778,613.903320 
	C352.064972,617.473511 351.056732,620.742920 349.763824,624.235596 
	C348.543457,627.585815 347.607727,630.712830 346.417847,634.112061 
	C344.838165,640.569153 343.512634,646.753967 342.051025,653.318115 
	C340.947052,659.799805 339.979218,665.902283 338.841553,672.378418 
	C338.066193,679.190613 337.460663,685.629089 336.670074,692.433960 
	C336.328339,698.868652 336.171692,704.937012 335.925568,711.465820 
	C335.836090,717.564941 335.836090,723.203613 335.836090,729.095337 
	C341.179169,729.095337 346.109985,729.095337 351.488708,729.175659 
	C357.966888,728.479431 363.997162,727.702881 370.423584,726.959839 
	C377.028381,725.215759 383.237000,723.438232 389.822510,721.640137 
	C403.384644,716.585815 415.816498,710.168213 427.379547,701.398804 
	C431.143707,698.504272 434.582062,695.766968 438.342346,692.932434 
	C441.094513,690.469543 443.524750,688.103882 446.249939,685.605713 
	C450.750061,680.995178 454.955261,676.517151 459.459717,671.909058 
	C461.534454,669.402405 463.309906,667.025818 465.438629,664.558594 
	C468.612579,660.661072 471.433258,656.854248 474.543640,652.889648 
	C478.230286,647.491882 481.627197,642.251953 485.219849,636.821472 
	C485.651215,636.148438 485.886841,635.665894 486.394775,634.968140 
	C490.190613,627.886841 493.714203,621.020813 497.497345,613.926270 
	C499.898743,608.483032 502.040527,603.268250 504.434326,597.893433 
	C505.028534,596.807922 505.370728,595.882568 505.890137,594.628601 
	C508.125122,588.216675 510.182831,582.133362 512.487000,575.777344 
	C514.333191,569.129089 515.932861,562.753418 517.689209,556.030151 
	C519.014832,549.476501 520.183838,543.270447 521.545166,536.725830 
	C522.130310,532.914124 522.523071,529.440979 523.018127,525.565735 
	C523.563599,519.860962 524.448059,514.551514 524.364990,509.257141 
	C524.138733,494.831482 523.503662,480.412201 523.094604,465.570374 
	C523.012756,463.460999 522.866882,461.771637 522.794312,459.670135 
	C521.844299,452.817657 520.820923,446.377350 519.795166,439.553253 
	C518.206299,433.108429 516.619812,427.047424 515.092651,420.592010 
	C513.102295,414.132141 511.052582,408.066681 509.001923,401.625732 
	C508.091675,399.011536 507.367645,396.668854 506.194763,394.577972 
	C505.609711,393.534973 504.203400,392.952637 503.364990,392.011932 
	C503.421967,391.448242 503.282562,391.034576 503.491394,390.573486 
	C503.552063,389.719299 503.264465,388.912567 502.955078,387.753296 
	C501.989685,385.555939 501.046112,383.711182 500.032837,381.521729 
	C496.624786,375.454742 493.286469,369.732452 489.871246,363.681213 
	C487.939087,360.744843 486.083801,358.137451 484.130676,355.214874 
	C481.101593,351.211273 478.170319,347.522858 475.122620,343.514954 
	C471.714966,339.398071 468.423767,335.600677 464.978882,331.513641 
	C462.603088,329.114532 460.381042,327.005066 458.006409,324.595886 
	C453.900543,320.867737 449.947235,317.439240 445.803528,313.736267 
	C441.984680,310.685791 438.356262,307.909790 435.001587,304.954407 
	C435.212433,303.991547 435.149597,303.208038 435.086761,302.424500 
	C434.387329,302.961365 433.687897,303.498260 432.649872,303.973877 
	C430.202728,302.626251 428.094208,301.339935 425.770203,299.784241 
	C419.722778,296.568787 413.890778,293.622681 407.829712,290.421387 
	C401.788879,288.278931 395.977081,286.391693 389.948761,284.253174 
	C383.148315,281.686523 376.564453,279.371124 369.649872,276.868652 
	C363.111877,275.281342 356.904572,273.881134 350.416565,272.268250 
	C345.420166,271.020905 340.704437,269.986206 336.442871,268.941132 
	C339.617645,268.804321 342.338287,268.677856 345.473511,268.648071 
	C347.591614,268.780365 349.295197,268.816040 351.405975,268.988312 
	C357.868225,269.736786 363.923218,270.348663 370.351440,271.112518 
	C376.155487,272.163879 381.586304,273.063293 387.332458,274.149841 
	C391.717773,275.537415 395.787781,276.737823 400.183197,278.077881 
	C402.091492,278.738007 403.674377,279.258514 405.968536,280.012939 
	C404.616180,277.792694 403.847137,276.429810 402.974670,275.136719 
	C402.482422,274.407166 401.819885,273.792480 401.234070,273.126068 
	C400.434387,273.947693 399.634705,274.769318 398.559418,275.514069 
	C397.792053,275.152374 397.300262,274.867523 396.855774,274.158447 
	C395.552551,271.542725 394.202026,269.351257 392.851471,267.159821 
	C391.539398,268.120758 390.227325,269.081696 388.579529,269.974365 
	C386.478088,268.993011 384.712402,268.079895 382.853882,266.919922 
	C382.493744,266.453094 382.226471,266.233093 381.678955,265.841797 
	C379.228729,263.876068 377.058716,262.081604 374.921448,259.894531 
	C375.611542,255.982025 377.364899,253.857559 380.660339,254.231003 
	C382.095276,256.516083 383.221191,258.309082 385.009491,261.156952 
	C385.009491,255.858444 385.009491,252.411133 385.264343,248.970886 
	C385.688660,248.964172 385.858093,248.950378 386.225739,249.138123 
	C386.924774,249.575180 387.425598,249.810684 388.125305,250.314194 
	C390.234100,251.673996 392.144012,252.765808 394.045837,254.202911 
	C394.319275,255.179718 394.600769,255.811264 394.882233,256.442810 
	C395.272308,255.900101 395.662384,255.357391 396.343262,254.847321 
	C397.119812,255.174393 397.605560,255.468811 398.072998,256.118683 
	C398.283051,257.135590 398.511414,257.797028 398.739777,258.458496 
	C399.215515,258.204803 399.691254,257.951111 400.549744,257.683258 
	C402.620850,258.495209 404.309265,259.321350 406.048645,260.487549 
	C408.997681,263.151154 411.794678,265.619720 414.836029,267.737305 
	C416.371674,268.806519 418.497650,270.042084 420.088593,269.748657 
	C421.883911,269.417511 423.377869,267.452606 425.327515,266.179749 
	C426.081818,266.214020 426.511536,266.266815 427.209961,266.553009 
	C429.609711,267.264832 431.740784,267.743256 434.203339,268.456909 
	C438.020477,269.135834 441.506104,269.579529 445.137848,270.365845 
	C447.868011,271.429474 450.452057,272.150452 452.863586,273.147919 
	C452.394745,274.350067 451.582703,275.531799 451.892822,276.156433 
	C453.132355,278.653107 454.720642,280.976685 456.475189,283.847412 
	C457.112488,283.381012 458.056091,282.690521 459.363220,282.028503 
	C463.824310,284.007111 467.921906,285.957275 472.161133,288.223419 
	C476.208954,290.677673 480.115173,292.815918 484.238495,295.217041 
	C496.649109,304.311646 508.842590,313.143372 521.187683,322.260284 
	C522.859131,323.744690 524.379028,324.943909 526.077393,326.423279 
	C531.153809,331.231537 536.051636,335.759705 541.064697,340.586823 
	C542.857361,341.966919 544.534912,343.048035 545.978516,344.481689 
	C550.476196,350.379395 555.207642,355.924561 560.012634,361.747498 
	C560.756836,362.695648 561.427551,363.366058 562.207275,364.350220 
	C566.898132,370.767334 571.480042,376.870728 576.150208,383.292542 
	C577.423035,385.214172 578.607666,386.817413 579.885071,388.740845 
	C582.878113,393.446014 585.778381,397.830963 588.788208,402.546936 
	C591.846252,407.680054 594.794739,412.482117 597.832214,417.589478 
	C598.552185,418.969055 599.183167,420.043335 599.893005,421.460632 
	C603.352112,427.882812 606.732422,433.962036 610.143127,440.393921 
	C612.464539,445.488678 614.755554,450.230804 617.063538,455.321960 
	C617.989929,457.522125 618.899353,459.373230 619.884888,461.571899 
	C622.571594,467.655823 625.182129,473.392181 627.837158,479.497742 
	C632.622009,492.254913 637.362305,504.642853 642.079956,517.408081 
	C644.194092,524.322937 646.330872,530.860474 648.501831,537.787537 
	C652.291809,551.241211 656.047668,564.305481 659.979004,577.980042 
	C662.106445,570.349060 664.100220,563.197571 666.318542,555.752686 
	C668.534668,549.325134 670.526245,543.190979 672.711731,536.763428 
	C677.380554,524.327576 681.855530,512.185181 686.563171,499.733154 
	C693.168884,486.290588 699.541870,473.157715 706.159912,459.774414 
	C707.459839,457.636261 708.687744,455.822479 709.532715,453.845062 
	C711.185791,449.976715 712.625000,446.017029 714.485107,442.075195 
	C715.636353,441.394043 716.455200,440.732849 717.541199,439.875519 
	C721.644592,433.523376 725.480713,427.367401 729.573608,421.011322 
	C730.941895,418.948578 732.053345,417.085876 733.462402,415.055359 
	C736.613525,410.667542 739.467102,406.447601 742.582642,402.022217 
	C745.952087,396.639069 749.059448,391.461395 752.477661,386.177460 
	C753.874512,385.093292 754.960449,384.115417 756.374146,383.028900 
	C759.616089,379.525269 762.646240,376.221344 765.406616,372.705536 
	C767.513977,370.021454 769.279663,367.069031 771.551025,364.249878 
	C778.000488,357.906677 784.096252,351.549591 790.494385,345.050690 
	C792.605957,343.204681 794.466309,341.551300 796.214172,339.786438 
	C800.698975,335.257812 804.806885,330.288269 809.673462,326.222870 
	C815.443909,321.402466 821.850647,317.343781 828.305237,312.863617 
	C831.107361,310.933044 833.585754,309.093811 836.393555,307.129578 
	C840.199402,304.749420 843.675903,302.494324 847.496765,300.150635 
	C852.337463,297.660095 856.907166,295.383026 861.298889,292.803101 
	C863.461243,291.532837 865.294434,289.702240 867.670532,288.155457 
	C873.727356,286.073608 879.390320,283.961548 885.415100,281.830902 
	C892.293640,279.577667 898.810303,277.343018 905.715576,275.159729 
	C912.025146,273.890289 917.946167,272.569458 924.328979,271.262024 
	C930.515747,270.767090 936.240723,270.258759 942.378052,269.829926 
	C944.183105,269.872253 945.575928,269.835114 947.391846,269.901978 
	C951.231262,270.460632 954.647522,270.915222 958.063782,271.369843 
	C958.051514,271.805176 958.039185,272.240540 958.026855,272.675873 
	C952.661926,275.198944 947.296997,277.722015 941.599182,280.326996 
	C936.853577,282.607391 932.440857,284.805878 927.702271,286.999939 
	C925.896057,287.816772 924.415771,288.638031 922.588257,289.593811 
	C913.523499,295.165741 904.806091,300.603119 895.750244,306.097931 
	C891.890320,309.031006 888.368713,311.906647 884.536133,314.912720 
	C880.811157,318.358765 877.397278,321.674377 873.681885,325.132202 
	C870.886658,328.132050 868.392883,330.989655 865.599854,334.004822 
	C862.831360,337.418457 860.362000,340.674530 857.595093,344.087708 
	C850.107117,356.727081 842.916748,369.209351 835.453857,381.925415 
	C832.569031,388.807281 829.956604,395.455383 827.220032,402.403503 
	C827.051941,403.133301 827.008057,403.563110 826.664978,404.197510 
	C824.628906,409.951965 822.891968,415.501862 820.988647,421.399292 
	C819.256592,427.817291 817.690857,433.887756 815.975586,440.329346 
	C814.591736,447.147736 813.357422,453.595032 812.006287,460.435425 
	C811.016663,466.860474 810.143860,472.892426 809.148315,479.342957 
	C808.486755,486.212219 807.948059,492.662842 807.345215,499.569946 
	C807.278137,505.670624 807.275208,511.314880 807.144653,517.407166 
	C807.358276,523.231140 807.699524,528.607117 807.985535,534.376099 
	C808.070312,535.542297 808.210449,536.315491 808.338745,537.487061 
	C809.272278,543.906189 810.217590,549.926941 811.152710,556.348877 
	C812.602234,563.058533 814.061829,569.367126 815.516357,576.109192 
	C817.522400,582.798706 819.533508,589.054688 821.592590,595.686768 
	C823.416565,600.377625 825.192566,604.692444 827.004028,609.348633 
	C827.693542,611.126404 828.347717,612.562866 829.044067,614.357300 
	C832.435242,621.159241 835.784241,627.603149 839.208130,634.376892 
	C841.839844,638.656738 844.396545,642.606750 847.002075,646.871338 
	C848.689575,649.473511 850.328247,651.760986 852.077393,654.367065 
	C856.774597,660.221130 861.361328,665.756714 865.937134,671.480957 
	C866.030518,671.941711 866.228394,672.073120 866.672119,672.383240 
	C872.883545,678.465210 878.942566,684.227722 885.092041,690.252075 
	C885.921814,691.024536 886.661133,691.535095 887.601074,692.350464 
	C892.798279,696.162292 897.794861,699.669250 902.987183,703.461609 
	C907.947327,706.189697 912.711731,708.632385 917.715088,711.349243 
	C919.492065,712.200073 921.030273,712.776733 922.853699,713.588379 
	C929.505371,715.780701 935.871765,717.737976 942.604126,719.842529 
	C949.308044,720.980042 955.645935,721.970215 962.382507,723.100769 
	C968.498108,723.602173 974.215027,723.963257 980.729736,724.374695 
	C980.729736,719.370972 980.729736,715.142761 980.810486,710.458008 
	C980.895386,704.012512 980.899536,698.023621 980.977600,691.571167 
	C980.688477,684.733582 980.325439,678.359497 980.016296,671.553711 
	C979.187012,664.988220 978.303955,658.854431 977.429321,652.304443 
	C976.086670,645.670410 974.735596,639.452637 973.353516,632.805054 
	C971.416077,626.086182 969.509583,619.797119 967.553711,613.134155 
	C966.034241,608.833008 964.564026,604.905701 963.045044,600.623779 
	C962.319763,598.517334 961.643188,596.765503 960.916321,594.657227 
	C957.904968,588.201477 954.943970,582.102234 951.947876,575.643433 
	C949.259155,570.532593 946.605530,565.781189 943.895020,560.699524 
	C942.583191,558.545593 941.328247,556.722046 939.966614,554.575562 
	C934.974976,547.982483 930.089966,541.712280 925.132324,535.159912 
	C924.410095,534.179626 923.760498,533.481506 922.988892,532.476685 
	C918.269714,527.434265 913.672546,522.698608 908.928955,517.666382 
	C907.273865,516.086853 905.765198,514.803894 904.084595,513.255615 
	C897.661072,507.942627 891.409424,502.894867 885.012451,497.540863 
	C882.518127,495.347107 880.169128,493.459595 877.820129,491.572083 
	C877.989502,491.254456 878.158875,490.936798 878.328247,490.619171 
	C880.113403,491.174377 881.898621,491.729584 883.916382,492.546631 
	C888.074524,494.910492 892.000122,497.012543 896.151611,499.360352 
	C898.914734,501.090363 901.452026,502.574646 904.170715,504.341248 
	C910.490173,508.860474 916.628235,513.097351 922.883057,517.529785 
	C923.218140,517.954407 923.483887,518.091858 923.940247,518.445557 
	C929.873596,523.892212 935.663757,529.031006 941.613708,534.452881 
	C942.535889,535.479614 943.298279,536.223145 944.204346,537.265869 
	C954.368042,550.395630 964.388062,563.226318 974.550171,576.397949 
	C976.456970,579.518066 978.221802,582.297241 980.029419,585.422974 
	C981.844238,588.879028 983.616272,591.988464 985.499695,595.401611 
	C988.758240,601.800293 991.905396,607.895203 995.089966,614.350464 
	C996.418762,617.473755 997.710205,620.236694 999.010803,623.373047 
	C1000.218750,626.918640 1001.417480,630.090820 1002.678101,633.636963 
	C1004.834351,640.343567 1006.928711,646.676208 1009.004883,653.415039 
	C1010.457520,660.031250 1011.928284,666.241150 1013.394897,672.870850 
	C1014.376343,679.553955 1015.362000,685.817322 1016.334351,692.496216 
	C1016.917297,698.608398 1017.513611,704.305054 1018.045044,710.465942 
	C1017.984253,717.287292 1017.988403,723.644287 1017.802856,730.335510 
	C1017.543457,731.429504 1017.473816,732.189209 1017.280151,733.238159 
	C1017.156982,734.360840 1017.157776,735.194397 1017.085327,736.351562 
	C1017.008179,737.116882 1017.004272,737.558411 1016.887878,738.370300 
	C1016.747803,739.765198 1016.720276,740.789734 1016.555664,742.194458 
	C1016.136108,745.027832 1015.853516,747.481140 1015.390503,750.218384 
	C1013.711792,752.023315 1012.475098,754.146973 1010.658752,754.935181 
	C1007.269592,756.405884 1003.543640,757.100525 999.531616,758.075317 
	C993.095703,758.447998 987.085999,758.863525 981.076355,759.279053 
	C975.000854,759.198669 968.925354,759.118286 961.945435,759.057739 
	C954.911133,758.567932 948.781311,758.058350 942.651428,757.548828 
M401.313538,266.047821 
	C400.330872,266.258484 399.348236,266.469147 398.365570,266.679810 
	C398.295135,267.115479 398.224701,267.551178 398.154266,267.986847 
	C400.129425,268.745880 402.104614,269.504883 404.079773,270.263916 
	C404.362671,269.781555 404.645569,269.299164 404.928467,268.816803 
	C403.965210,267.935730 403.001953,267.054626 401.313538,266.047821 
z"/>
<path fill="#343434" opacity="1.000000" stroke="none" 
	d="
M533.005676,115.019119 
	C535.547607,114.603714 538.089539,114.188309 540.985962,113.626328 
	C547.614502,112.901787 553.888672,112.323814 561.083862,111.749725 
	C568.012207,112.194580 574.019409,112.635567 580.338623,113.316422 
	C585.782104,114.315445 590.913574,115.074585 596.272583,115.892685 
	C596.500061,115.951653 596.964905,115.882484 597.168091,115.961899 
	C597.371277,116.041313 597.807373,116.057571 597.928955,116.307083 
	C598.363403,116.688721 598.676270,116.820839 599.341309,117.119652 
	C605.813660,118.472969 611.934021,119.659592 618.450867,120.959061 
	C624.898743,121.715981 630.950134,122.360046 637.458130,123.118881 
	C643.966736,123.064262 650.018677,122.894882 656.463196,122.753098 
	C662.888062,121.473755 668.920288,120.166832 675.335571,118.889069 
	C679.829285,117.704399 683.939941,116.490578 688.448486,115.221283 
	C689.908264,115.063850 690.970215,114.961891 692.040710,115.253181 
	C688.664917,121.408142 685.280518,127.169861 681.604736,133.089691 
	C679.149902,135.749329 676.986328,138.250854 674.517883,140.896301 
	C670.380859,144.617798 666.548706,148.195328 662.415527,151.889084 
	C660.045776,153.622650 657.976990,155.239990 655.578308,156.955032 
	C649.135559,161.187729 643.022827,165.322723 636.581421,169.600708 
	C635.320190,170.468964 634.387573,171.194244 633.135986,171.974854 
	C627.856201,175.601700 622.895325,179.173218 617.609253,182.862946 
	C614.508667,185.298355 611.733337,187.615555 608.629456,190.065643 
	C607.157898,191.221069 606.014771,192.243622 604.132385,193.927505 
	C609.614258,193.927505 613.820007,193.927505 618.461426,193.996918 
	C630.689758,193.020462 642.483398,191.985046 654.272278,190.898666 
	C654.877075,190.842926 655.441589,190.350006 656.439819,190.171936 
	C660.373474,190.534760 663.892273,190.786285 667.662048,191.347427 
	C667.825867,193.282837 668.334778,195.321671 667.545410,196.460968 
	C664.565002,200.762558 661.162781,204.771881 657.661621,208.998138 
	C656.919739,209.870453 656.434631,210.635254 655.640991,211.589828 
	C650.540833,217.166122 645.749329,222.552643 640.653992,228.060333 
	C638.873901,229.769623 637.397522,231.357727 635.630188,233.105698 
	C630.022827,238.161545 624.706543,243.057510 619.114380,247.993103 
	C618.183777,248.657425 617.529053,249.282120 616.562927,250.033081 
	C610.511353,254.167236 604.771118,258.175140 598.708130,262.274414 
	C595.864075,263.872406 593.342773,265.379028 590.469238,266.933594 
	C586.435608,268.724731 582.754089,270.467926 578.708801,272.225861 
	C572.350159,274.344086 566.355408,276.447601 559.918945,278.428345 
	C553.319397,279.540039 547.161499,280.774506 540.569031,281.950256 
	C534.054810,282.397064 527.975220,282.902618 521.492554,283.358826 
	C515.047546,283.513763 509.005524,283.718018 502.531189,283.790680 
	C496.065430,283.440674 490.031982,283.222321 483.590149,282.892090 
	C476.296387,282.134064 469.415985,281.420898 462.520660,280.907928 
	C461.380371,280.823120 460.174988,281.613892 458.999664,282.000031 
	C458.056091,282.690521 457.112488,283.381012 456.475189,283.847412 
	C454.720642,280.976685 453.132355,278.653107 451.892822,276.156433 
	C451.582703,275.531799 452.394745,274.350067 453.320068,273.119080 
	C457.594879,272.945435 461.240662,273.077118 465.343140,273.358368 
	C471.868530,273.013580 477.937225,272.519196 484.423706,272.052216 
	C490.226227,270.714722 495.610931,269.349854 501.295319,267.994690 
	C502.127655,267.770630 502.660278,267.536896 503.564636,267.263489 
	C510.346680,264.192230 516.756958,261.160675 523.498169,258.037476 
	C528.377197,254.649307 532.925293,251.352722 537.775391,247.987320 
	C539.405945,246.626694 540.734375,245.334869 542.362305,243.893570 
	C546.557129,238.849442 550.452515,233.954788 554.630249,228.897430 
	C557.265442,225.484329 559.618164,222.233948 562.207703,218.753494 
	C564.324219,216.053177 566.203918,213.582947 568.378723,210.950256 
	C572.430176,206.184769 576.186523,201.581711 580.195984,196.780899 
	C581.665100,195.107132 582.880981,193.631104 584.392578,191.991608 
	C589.525146,186.926865 594.361938,182.025620 599.505493,176.942963 
	C602.014954,174.870590 604.217712,172.979675 606.730530,170.994263 
	C610.706848,168.000549 614.373230,165.101334 618.369995,162.091583 
	C622.974670,158.672470 627.248962,155.363892 631.839294,151.989853 
	C636.124512,148.377197 640.093628,144.830002 643.875122,141.450455 
	C635.458313,140.926849 626.765564,140.386078 617.732788,139.639801 
	C611.258057,138.280884 605.123230,137.127472 598.654114,135.782043 
	C592.876465,134.402603 587.433044,133.215210 581.636230,131.910675 
	C580.553955,131.659256 579.825073,131.524979 578.731445,131.259674 
	C576.599426,130.842133 574.840393,130.386948 573.063477,130.301727 
	C568.319519,130.074188 563.567871,130.005600 558.362854,129.896912 
	C549.474182,129.930725 540.978943,129.409500 532.565308,132.875488 
	C528.734009,134.177963 525.292175,135.475342 521.485840,136.815216 
	C515.054626,140.374573 508.987823,143.891464 502.596069,147.548920 
	C500.521576,149.140457 498.772003,150.591400 496.711548,152.163376 
	C491.918915,156.849060 487.437164,161.413712 482.693115,166.163391 
	C481.276978,167.881683 480.123169,169.414917 478.700195,171.152023 
	C474.315582,177.915253 470.200104,184.474609 465.881561,191.308304 
	C465.048828,193.042282 464.419189,194.501953 463.496918,196.136795 
	C461.160889,200.885666 459.117493,205.459335 456.866882,210.328140 
	C454.375671,216.345093 452.091644,222.066925 449.533875,228.020645 
	C447.909790,231.534454 446.559448,234.816360 445.043274,238.406570 
	C442.672241,241.002029 440.270294,245.286667 438.309479,245.093491 
	C435.580872,244.824692 432.846680,241.477219 430.756012,238.922760 
	C429.250641,237.083466 428.791473,234.387924 427.897003,231.741058 
	C427.581940,230.591629 427.235535,229.775467 426.896332,228.584076 
	C424.664368,222.097717 422.425171,215.986588 420.136780,209.518738 
	C416.361786,202.941574 412.635986,196.721161 408.678772,190.149689 
	C407.996918,189.478226 407.546478,189.157791 407.103271,188.630585 
	C401.175446,179.400772 393.232880,172.424179 384.026123,167.053421 
	C379.411743,164.361633 374.084106,162.892502 368.915253,160.534424 
	C361.553986,157.426239 354.145508,155.958084 346.183014,156.018845 
	C349.350067,161.680420 352.225098,166.819931 355.111206,172.330475 
	C356.973663,178.820145 358.825012,184.938766 360.685974,191.460419 
	C360.910858,192.912628 361.126160,193.961823 361.331116,195.406036 
	C362.195892,200.541428 363.070953,205.281784 363.923523,210.430176 
	C366.463531,226.023605 370.974609,240.130173 385.009491,248.963821 
	C385.009491,252.411133 385.009491,255.858444 385.009491,261.156952 
	C383.221191,258.309082 382.095276,256.516083 380.660339,254.231003 
	C377.364899,253.857559 375.611542,255.982025 374.607056,259.773804 
	C372.861176,258.917053 371.462494,257.788391 369.941406,256.362793 
	C367.352631,253.691437 364.886261,251.317001 362.366516,248.571564 
	C359.006287,241.496201 355.699432,234.791840 352.436157,227.808472 
	C352.128204,226.648636 351.776703,225.767807 351.353607,224.496857 
	C349.975372,219.320267 348.668732,214.533813 347.336548,209.347626 
	C345.748901,202.949463 344.186798,196.951019 342.586426,190.546707 
	C340.024139,184.095535 337.500092,178.050247 334.904968,171.681335 
	C333.617279,169.783157 332.400726,168.208603 331.073669,166.325027 
	C322.647644,158.884537 314.332092,151.753082 306.141327,144.728622 
	C307.691071,144.165848 310.013092,143.322632 312.335144,142.479416 
	C318.178223,141.781250 324.021271,141.083084 330.553711,140.561157 
	C337.711334,141.079285 344.179596,141.421143 350.927155,141.889969 
	C357.475250,143.668106 363.744049,145.319275 370.320251,147.156982 
	C372.915680,148.306625 375.175293,149.346008 377.499207,150.213104 
	C380.255310,151.241440 383.066772,152.121384 386.001343,153.375580 
	C393.074524,158.808060 400.000580,163.930603 407.053619,169.342163 
	C408.151733,170.416107 409.122894,171.201035 410.244873,172.278793 
	C415.920135,179.737335 421.444519,186.903046 427.056519,194.405823 
	C429.694153,199.873978 432.244171,205.005066 434.822876,210.506775 
	C435.594238,213.087341 436.337006,215.297241 437.547668,218.899368 
	C438.678284,214.981232 439.389648,212.515976 440.324585,209.767639 
	C442.804871,203.682678 445.061554,197.880814 447.532715,191.970337 
	C447.970612,191.586807 448.020111,191.283508 448.085754,190.657318 
	C451.608765,184.181854 454.941681,178.000946 458.549622,171.654953 
	C461.211884,167.990555 463.599121,164.491241 466.239166,160.776382 
	C468.505127,158.061295 470.518250,155.561752 472.802612,152.906708 
	C477.080719,148.855621 481.087524,144.960052 485.398682,140.924835 
	C488.948120,138.209686 492.193207,135.634155 495.761566,133.025208 
	C498.410522,131.445938 500.736206,129.900085 503.415588,128.255096 
	C509.847748,125.112038 515.926208,122.068108 522.373108,118.985901 
	C526.162964,117.638115 529.584290,116.328613 533.005676,115.019119 
M527.334900,266.221375 
	C526.003357,267.075500 524.671814,267.929657 522.636963,268.711945 
	C520.803833,269.559967 518.970703,270.407990 517.137573,271.256012 
	C517.261230,271.809509 517.384888,272.362976 517.508545,272.916473 
	C525.679749,271.907715 533.851013,270.898956 542.812195,269.942780 
	C546.067871,268.980164 549.323608,268.017548 553.252441,267.415833 
	C555.836792,266.606049 558.421143,265.796265 561.760132,264.973083 
	C567.515076,262.667114 573.270020,260.361115 579.729065,257.972290 
	C584.257507,255.393982 588.786011,252.815659 594.009094,249.988800 
	C595.823669,248.834991 597.638184,247.681198 600.100220,246.299210 
	C607.061707,241.002625 614.382324,236.107620 620.881287,230.293976 
	C627.097107,224.733597 632.458374,218.217987 638.846985,211.966522 
	C641.589783,208.824219 644.332581,205.681915 647.931519,201.558716 
	C643.350159,201.872116 640.148254,202.091156 636.026245,202.173676 
	C630.052185,202.243729 624.078125,202.313782 617.180054,202.168991 
	C611.161438,202.036026 605.142761,201.903046 598.364258,201.626282 
	C595.084473,204.396484 591.804749,207.166702 587.965149,210.233459 
	C585.287537,213.393646 582.609924,216.553833 579.316345,220.022461 
	C576.686035,222.989761 574.055725,225.957062 570.915894,229.279877 
	C567.619446,232.896820 564.322937,236.513763 560.415527,240.363205 
	C558.265503,242.556320 556.115417,244.749435 553.359497,247.227127 
	C549.531677,250.647507 545.703918,254.067902 541.308472,257.735962 
	C536.878845,260.536194 532.449158,263.336426 527.334900,266.221375 
z"/>
<path fill="#343434" opacity="1.000000" stroke="none" 
	d="
M406.048645,260.487549 
	C406.454224,260.067841 406.910828,259.988251 407.712708,259.867279 
	C413.482666,261.847382 418.907318,263.868896 424.667419,266.044312 
	C423.377869,267.452606 421.883911,269.417511 420.088593,269.748657 
	C418.497650,270.042084 416.371674,268.806519 414.836029,267.737305 
	C411.794678,265.619720 408.997681,263.151154 406.048645,260.487549 
z"/>
<path fill="#343434" opacity="1.000000" stroke="none" 
	d="
M396.855774,274.158447 
	C394.459961,273.477692 392.111450,272.372711 389.450653,271.093689 
	C389.138397,270.919678 389.053375,270.474396 388.984314,270.258484 
	C390.227325,269.081696 391.539398,268.120758 392.851471,267.159821 
	C394.202026,269.351257 395.552551,271.542725 396.855774,274.158447 
z"/>
<path fill="#343434" opacity="1.000000" stroke="none" 
	d="
M400.183197,278.077881 
	C399.665009,277.275421 399.472229,276.612640 399.057251,275.770386 
	C399.634705,274.769318 400.434387,273.947693 401.234070,273.126068 
	C401.819885,273.792480 402.482422,274.407166 402.974670,275.136719 
	C403.847137,276.429810 404.616180,277.792694 405.968536,280.012939 
	C403.674377,279.258514 402.091492,278.738007 400.183197,278.077881 
z"/>
<path fill="#343434" opacity="1.000000" stroke="none" 
	d="
M401.676117,266.110687 
	C403.001953,267.054626 403.965210,267.935730 404.928467,268.816803 
	C404.645569,269.299164 404.362671,269.781555 404.079773,270.263916 
	C402.104614,269.504883 400.129425,268.745880 398.154266,267.986847 
	C398.224701,267.551178 398.295135,267.115479 398.365570,266.679810 
	C399.348236,266.469147 400.330872,266.258484 401.676117,266.110687 
z"/>
<path fill="#343434" opacity="1.000000" stroke="none" 
	d="
M435.001587,304.954407 
	C434.239960,304.926178 433.752014,304.718597 433.126282,304.273071 
	C433.687897,303.498260 434.387329,302.961365 435.086761,302.424500 
	C435.149597,303.208038 435.212433,303.991547 435.001587,304.954407 
z"/>
<path fill="#343434" opacity="1.000000" stroke="none" 
	d="
M398.072998,256.118683 
	C398.781586,256.188782 399.471893,256.614288 400.164581,257.368622 
	C399.691254,257.951111 399.215515,258.204803 398.739777,258.458496 
	C398.511414,257.797028 398.283051,257.135590 398.072998,256.118683 
z"/>
<path fill="#343434" opacity="1.000000" stroke="none" 
	d="
M394.045837,254.202911 
	C394.600555,254.025299 395.147217,254.192978 395.873169,254.587677 
	C395.662384,255.357391 395.272308,255.900101 394.882233,256.442810 
	C394.600769,255.811264 394.319275,255.179718 394.045837,254.202911 
z"/>
<path fill="#343434" opacity="1.000000" stroke="none" 
	d="
M382.266907,267.031372 
	C382.038940,266.993256 381.989014,266.503998 381.974091,266.258545 
	C382.226471,266.233093 382.493744,266.453094 382.853882,266.919922 
	C382.946716,267.166748 382.494843,267.069489 382.266907,267.031372 
z"/>
</svg>