<svg version="1.1" id="Layer_1" xmlns="http://www.w3.org/2000/svg" xmlns:xlink="http://www.w3.org/1999/xlink" x="0px" y="0px"
	 width="100%" viewBox="0 0 816 752" enable-background="new 0 0 816 752" xml:space="preserve">
<path fill="#D4AF37" opacity="1.000000" stroke="none" 
	d="
M548.255920,324.606567 
	C515.159729,326.438263 491.699066,316.312073 476.222778,285.535614 
	C460.879364,255.023361 460.786621,223.800339 472.579926,192.162491 
	C473.318726,190.180511 474.536194,188.285934 474.194427,185.954590 
	C471.944092,184.437286 470.838104,186.207245 469.673279,187.524078 
	C449.689606,210.116241 437.518158,236.512360 430.452667,265.701263 
	C427.465698,278.041016 425.170715,290.361298 424.174835,302.971619 
	C424.094910,303.983826 423.869202,304.968628 422.607300,305.352478 
	C420.449219,304.243011 420.831635,302.108734 420.603363,300.197540 
	C417.915161,277.690277 413.903168,255.464294 405.682281,234.226395 
	C399.393768,217.980698 391.014252,202.873138 379.986542,189.318726 
	C378.344482,187.300400 376.900970,184.971039 373.750610,183.947723 
	C373.503143,187.727798 375.166718,190.774887 376.459167,193.793488 
	C381.617615,205.841309 385.280640,218.434418 385.883972,231.398483 
	C386.572784,246.200455 384.739197,260.922455 378.681549,274.839142 
	C367.392273,300.774811 348.666809,317.920471 320.886475,324.699493 
	C313.338470,326.541412 305.710327,326.454956 298.051331,326.155304 
	C294.586853,326.019775 292.782196,324.577271 292.428833,320.704834 
	C290.811249,302.977112 294.304077,286.200958 301.881744,270.317780 
	C309.182251,255.015564 319.659882,242.205429 334.086731,232.961243 
	C338.089050,230.396713 342.318237,228.186203 346.556458,225.748230 
	C347.624756,228.282410 345.856506,228.821289 344.774048,229.612274 
	C326.763855,242.772720 314.388336,259.827240 309.314941,281.712616 
	C307.517487,289.466553 306.291931,297.385529 306.250488,305.406097 
	C306.215118,312.247559 307.818176,313.340851 314.728638,312.462585 
	C328.335236,310.733398 339.403229,304.040131 348.242188,294.178253 
	C374.648376,264.716370 381.625824,230.401611 369.001221,193.348099 
	C359.750214,166.196182 339.207520,150.313538 310.656311,145.385666 
	C309.307739,145.152908 307.539215,145.708954 306.871368,143.416061 
	C311.778992,141.573441 316.463074,144.840485 320.962036,144.326324 
	C321.750336,142.980942 321.320709,142.152451 320.666901,141.691818 
	C313.528748,136.662674 311.342102,128.928268 309.637146,121.080353 
	C307.567749,111.555115 303.489410,103.532082 294.293152,98.602882 
	C296.183868,96.078064 298.703247,95.730804 301.071930,95.816254 
	C316.748047,96.381767 330.549072,100.785820 339.445251,115.011597 
	C342.430542,119.785385 344.061798,119.787308 346.445770,114.705582 
	C354.080963,98.430367 366.675964,88.728661 384.262238,85.215736 
	C390.098419,84.049934 395.477814,85.857605 400.974548,87.013443 
	C411.263123,89.176910 421.531006,90.869507 431.871246,87.341827 
	C433.469299,86.796631 435.081512,86.373802 437.131989,87.789589 
	C431.639313,100.135017 418.824097,104.785606 409.000061,113.418159 
	C415.784790,116.667061 422.501923,112.227371 429.364838,115.708672 
	C420.462769,126.952881 411.764343,137.273804 399.061707,143.757004 
	C386.377930,150.230560 372.693390,149.144547 359.212860,149.410767 
	C359.173004,152.514053 361.009155,153.419220 362.470184,154.273026 
	C381.605713,165.455643 393.956116,182.689896 404.266876,201.571655 
	C411.860779,215.478088 417.463135,230.291290 422.259521,245.389618 
	C422.763916,246.977371 422.899139,249.047119 424.841949,249.242996 
	C427.243866,249.485168 427.523224,247.174210 428.082764,245.485367 
	C434.946014,224.769196 444.666016,205.546982 457.967987,188.190414 
	C469.110565,173.651489 481.699463,160.682587 498.183685,152.155945 
	C508.648071,146.743134 519.707703,143.262573 531.667725,143.410629 
	C532.496582,143.420914 533.330078,143.434570 534.150635,143.534973 
	C534.440063,143.570374 534.697144,143.870117 535.253296,144.236465 
	C533.961243,147.623840 530.535583,147.973709 527.889465,149.057739 
	C512.127319,155.514938 500.244690,166.421585 492.246887,181.204025 
	C485.628448,193.436859 482.146576,206.861145 480.555908,220.687714 
	C477.494781,247.296326 483.768616,271.203613 501.378174,291.801422 
	C511.075226,303.144073 523.308899,309.353149 538.171021,310.488678 
	C541.568909,310.748230 542.581238,308.826599 542.656555,305.937286 
	C543.209717,284.703979 538.192810,265.062073 526.083557,247.393677 
	C521.130676,240.167023 515.157776,233.988632 508.133575,228.779037 
	C507.166138,228.061539 505.662201,227.600250 505.870758,225.860001 
	C507.397064,225.002594 508.435120,226.138962 509.495270,226.778534 
	C520.379395,233.345123 530.319702,240.789474 537.856140,251.443344 
	C551.865906,271.248352 558.097046,293.052856 557.240540,317.167206 
	C557.024902,323.239044 553.291199,324.114624 548.255920,324.606567 
M373.903564,139.464828 
	C377.501068,137.344833 381.106445,135.170380 383.489441,131.633652 
	C391.174408,120.228035 400.007233,109.934830 411.448517,102.092697 
	C412.530792,101.350891 413.832489,100.643700 413.432281,98.981766 
	C413.056244,97.420059 411.633881,97.081406 410.363007,96.793869 
	C406.641144,95.951790 402.880035,95.282928 399.157928,94.441750 
	C390.969604,92.591194 382.941162,91.567871 374.801758,95.196587 
	C363.265076,100.339882 356.291901,109.458954 351.357117,120.561913 
	C349.669617,124.358566 348.204010,128.255997 346.444794,132.017502 
	C345.780548,133.437744 345.158783,135.516525 343.210236,135.410049 
	C340.923523,135.285080 340.095215,133.256393 339.440094,131.286591 
	C338.390747,128.131454 337.535065,124.875023 336.125977,121.883514 
	C332.343353,113.852898 327.175201,107.048729 318.324554,104.053299 
	C314.489136,102.755234 312.812683,104.245247 313.597839,108.032425 
	C314.674561,113.225815 316.130432,118.321297 317.029297,123.575989 
	C317.706940,127.537483 318.468384,132.001114 322.434601,134.433151 
	C338.499786,144.284058 355.110962,149.353607 373.903564,139.464828 
M404.347961,119.478546 
	C400.001556,120.325752 398.074188,124.144867 395.311096,126.905853 
	C390.134766,132.078171 385.055878,137.348022 379.864258,142.651077 
	C380.427338,142.902451 380.738312,143.177689 381.009003,143.142563 
	C395.022705,141.323822 406.054901,134.079315 415.353058,123.909912 
	C417.737518,121.302025 415.406586,119.921364 413.102966,119.581810 
	C410.503418,119.198647 407.812927,119.432571 404.347961,119.478546 
z"/>
<path fill="#D4AF37" opacity="1.000000" stroke="none" 
	d="
M569.321045,434.386078 
	C576.114197,424.838043 584.164185,417.706970 595.919678,416.033356 
	C601.240723,415.275818 605.935852,416.883392 609.311951,420.964905 
	C612.357605,424.646881 611.610046,428.649872 608.947754,432.482574 
	C604.975281,438.201416 600.536621,443.652161 598.469666,450.508148 
	C597.819702,452.664032 597.074402,454.807037 598.802490,456.617310 
	C600.757446,458.665161 602.573303,456.717590 604.148376,455.815094 
	C613.855408,450.253174 621.815002,442.872192 627.425171,433.073425 
	C629.981384,428.608673 631.975708,423.760132 635.812317,420.126099 
	C637.562195,418.468628 639.641968,416.784271 641.972961,418.468933 
	C644.561096,420.339325 642.352051,422.391785 641.323792,424.104218 
	C636.438965,432.238892 631.375244,440.272797 628.327393,449.349213 
	C627.755310,451.052856 626.501404,453.041931 628.266235,454.443176 
	C630.199402,455.978027 632.242981,454.413971 633.639160,453.209351 
	C639.290588,448.333282 645.244385,443.732727 649.001343,437.005249 
	C652.003418,431.629456 655.063232,426.261078 659.204468,421.633514 
	C660.192810,420.529083 661.204712,419.388763 662.402100,418.542938 
	C663.857361,417.514984 665.543640,417.330627 666.991882,418.668365 
	C668.453491,420.018372 667.648499,421.536224 666.869080,422.754089 
	C664.088135,427.099426 661.079407,431.299652 658.325317,435.661163 
	C655.825378,439.620239 654.091309,443.940704 652.847961,448.468811 
	C652.187927,450.872223 652.017456,453.180420 654.053040,454.917938 
	C656.101196,456.666077 658.247925,455.544006 660.052734,454.378113 
	C668.973755,448.615021 676.599487,441.395477 682.002625,432.263855 
	C688.188965,421.808411 693.735901,410.974945 699.573730,400.312897 
	C702.285339,395.360352 701.544312,393.741730 695.974304,393.190125 
	C686.705078,392.272247 677.367554,390.820099 668.632019,395.814911 
	C667.468445,396.480194 665.905701,396.686859 665.165405,395.126038 
	C664.429993,393.575623 665.676147,392.676392 666.779968,391.900635 
	C671.581299,388.526459 677.188477,388.456329 682.637512,388.598541 
	C688.770752,388.758636 694.991150,388.650604 700.991150,390.395569 
	C704.375183,391.379761 706.262573,389.468506 707.992798,386.985199 
	C710.539856,383.329437 713.148438,379.690247 717.872375,378.177734 
	C720.165588,381.025909 717.917664,382.976257 716.899353,385.020569 
	C713.978394,390.884949 715.222900,393.013275 721.787537,392.845886 
	C728.578186,392.672791 735.420593,393.757111 742.159607,391.926605 
	C743.521667,391.556671 745.156311,391.415558 746.623413,392.735535 
	C746.343811,396.116943 743.487793,396.207550 741.226990,396.228180 
	C732.739502,396.305481 724.209534,397.003448 715.776062,395.702637 
	C712.503418,395.197845 710.269897,395.983673 708.575256,398.718048 
	C698.652588,414.728638 689.323975,431.043182 683.365662,449.029083 
	C682.618896,451.283325 681.010193,454.139282 683.406738,456.035187 
	C686.073669,458.145020 688.442444,455.661652 690.530579,454.206116 
	C698.648560,448.547577 705.711792,441.881622 710.847229,433.248108 
	C713.476624,428.827576 716.703735,424.757324 719.743530,420.589142 
	C720.715759,419.255981 721.845032,418.005554 723.526733,417.439514 
	C725.283447,416.848206 726.892578,417.139923 728.124573,418.443817 
	C729.495178,419.894379 728.423279,421.277008 727.550964,422.467285 
	C722.727112,429.049469 717.880432,435.612885 714.363953,443.031281 
	C713.438354,444.983978 712.512939,446.937378 711.632446,448.910553 
	C710.869934,450.619263 710.078247,452.526611 711.714844,454.014648 
	C713.559692,455.692078 715.622437,454.565430 717.227417,453.469940 
	C722.461182,449.897644 727.382080,445.935638 731.608704,441.154755 
	C735.709778,436.516022 739.190613,431.460266 742.292664,426.116241 
	C743.377625,424.247101 744.522400,422.376923 745.897461,420.721100 
	C747.568726,418.708710 749.415955,416.042084 752.490662,417.902893 
	C755.941101,419.991089 753.450745,422.575043 752.361511,424.815704 
	C748.942261,431.849152 745.392944,438.819244 741.954041,445.843323 
	C740.971924,447.849365 739.754822,449.903198 741.023804,452.808197 
	C751.278992,447.578766 759.004456,439.582581 767.810974,432.443054 
	C769.222839,435.729767 767.287842,437.180573 765.895447,438.582764 
	C758.245605,446.286499 750.026062,453.326447 740.559448,458.721985 
	C737.091980,460.698273 734.746826,463.274231 732.816895,466.809357 
	C725.399963,480.395599 718.104187,494.130798 707.156006,505.351837 
	C700.669678,511.999817 693.032471,516.987366 684.010559,519.593506 
	C679.678772,520.844788 675.266541,521.273254 671.947571,517.524536 
	C668.541138,513.677124 669.962463,509.328339 671.804565,505.320129 
	C674.869995,498.650238 680.141174,493.775940 685.643311,489.138306 
	C697.272644,479.336121 710.160278,471.369904 723.069397,463.429932 
	C728.136292,460.313477 731.223938,455.975677 731.525818,449.865295 
	C728.875244,448.961487 727.801086,450.841919 726.447510,451.872620 
	C722.722290,454.709351 718.959717,457.427277 714.390137,458.790222 
	C710.084412,460.074493 706.691528,459.149902 705.148499,454.635651 
	C703.670654,450.312317 701.656738,451.037598 699.044128,453.543823 
	C696.002686,456.461517 692.475952,458.650269 688.468140,460.011108 
	C680.890503,462.584015 676.489746,459.732178 675.745667,451.789886 
	C675.671204,450.995483 675.552490,450.205261 675.446838,449.352417 
	C672.659241,449.140930 671.478699,451.257629 669.907654,452.566925 
	C666.034973,455.794373 662.001892,458.642609 656.994019,459.864746 
	C651.645569,461.169983 647.960510,459.708954 646.233643,454.575226 
	C644.713806,450.057037 643.166931,450.406250 640.108887,453.201141 
	C637.555420,455.534882 634.594360,457.560120 631.519714,459.154846 
	C626.561523,461.726501 622.617310,460.044464 621.176819,454.630066 
	C619.921753,449.912384 617.926819,450.868500 615.372925,453.274292 
	C611.779968,456.658875 607.548157,458.976074 602.880554,460.353027 
	C597.042786,462.075195 593.715210,460.260773 591.501221,454.599091 
	C589.490845,449.458221 589.305420,449.395294 584.751892,452.952881 
	C581.576111,455.434052 578.207336,457.559601 574.337219,458.765381 
	C568.489258,460.587250 565.045593,458.768280 563.692993,452.789459 
	C562.827759,448.965271 561.225891,448.992767 558.570679,451.084045 
	C553.024658,455.452087 547.048279,458.983734 540.018616,460.444000 
	C531.393066,462.235748 525.228760,456.825775 525.909851,448.014984 
	C526.870117,435.592468 540.455017,419.101898 552.366577,416.017792 
	C555.399048,415.232697 558.506104,415.285492 560.594666,418.032928 
	C562.788391,420.918793 562.158264,424.162933 560.433044,426.969360 
	C555.713867,434.646088 548.384644,439.133881 539.906372,440.821320 
	C534.254028,441.946289 532.807617,445.138824 532.497864,449.712646 
	C532.148865,454.864380 535.814392,457.953339 540.393005,456.132751 
	C551.845886,451.578766 562.077759,445.226715 569.321045,434.386078 
M691.954285,511.487427 
	C703.948303,503.691406 721.873962,479.095154 720.939087,471.682953 
	C719.128540,470.997772 717.646057,472.019989 716.322205,472.880554 
	C707.972534,478.308258 699.413269,483.457275 691.862915,490.013580 
	C686.113831,495.005859 679.922363,499.581512 676.138733,506.489349 
	C674.515076,509.453705 673.390381,512.431519 676.045288,515.191406 
	C678.702881,517.954041 681.843567,516.938904 684.771423,515.441956 
	C686.988159,514.308594 689.121216,513.011353 691.954285,511.487427 
M580.455017,451.012970 
	C587.885864,445.256287 593.901001,438.157227 599.362305,430.602570 
	C601.186340,428.079407 604.624512,425.102905 601.768433,421.831421 
	C598.747681,418.371338 595.006287,421.166046 591.687744,422.442566 
	C590.931580,422.733429 590.300781,423.347107 589.607666,423.805176 
	C581.556152,429.126312 576.315186,436.751495 572.484558,445.361206 
	C571.294983,448.034790 568.529846,451.621338 571.550293,454.034210 
	C574.427856,456.332977 577.307739,453.130035 580.455017,451.012970 
M549.754211,431.264099 
	C552.513184,428.684021 554.968750,425.943176 555.095276,421.807007 
	C549.017395,421.607269 541.075317,429.141968 540.010742,436.235046 
	C543.807983,435.928040 546.277283,433.323853 549.754211,431.264099 
z"/>
<path fill="#D4AF37" opacity="1.000000" stroke="none" 
	d="
M285.399872,418.203979 
	C291.115387,422.956726 291.943420,426.472137 288.188873,432.229126 
	C284.463715,437.941101 280.376801,443.401520 277.701324,449.743469 
	C276.813660,451.847534 276.069672,453.805359 278.015320,455.698273 
	C279.854950,457.487946 281.884460,456.654388 283.568146,455.719086 
	C292.897614,450.536774 300.447205,443.346893 306.164154,434.379608 
	C308.929810,430.041565 310.983093,425.254913 313.497833,420.748932 
	C314.832336,418.357697 316.605408,415.859650 319.783325,417.595337 
	C322.760712,419.221558 321.325226,421.876801 320.501831,424.240753 
	C320.088837,425.426422 319.083008,426.534698 319.739746,428.069244 
	C322.335815,427.926666 323.234070,425.630524 324.859924,424.386902 
	C328.285828,421.766449 331.430084,418.836060 335.726501,417.453247 
	C339.289948,416.306396 342.436859,416.644318 344.969696,419.203156 
	C347.399078,421.657471 346.748322,424.986267 345.546539,427.657013 
	C342.749664,433.872498 339.471741,439.871063 336.406677,445.966553 
	C335.591064,447.588593 334.358307,449.043427 334.292023,450.979767 
	C334.241791,452.448517 333.661835,454.139221 335.001007,455.219818 
	C336.353729,456.311340 337.878967,455.549042 339.232788,454.892303 
	C345.632843,451.787598 350.660004,446.900940 355.708313,442.061676 
	C361.009979,436.979584 363.523926,430.142151 366.984375,423.902588 
	C370.260315,417.995819 372.989349,416.184204 375.781891,418.559143 
	C380.180450,422.299927 375.702911,425.261383 374.026978,427.907562 
	C369.827606,434.537933 365.799561,441.209442 363.117065,448.608124 
	C362.328888,450.782043 361.306213,453.287628 363.548523,455.076385 
	C365.605957,456.717621 367.709686,455.260864 369.526184,454.120239 
	C378.039276,448.774567 385.579163,442.267242 392.230408,434.737152 
	C394.062225,432.663269 395.851807,430.576538 399.002533,429.057526 
	C398.348511,433.684052 395.429047,436.376587 393.172791,439.195618 
	C387.945770,445.726471 381.542267,451.113983 374.636505,455.813080 
	C371.617737,457.867218 368.216980,459.285675 364.390228,459.378387 
	C360.619965,459.469727 358.064331,458.055878 356.667725,454.397858 
	C354.818939,449.555542 354.126709,449.351471 350.217896,452.796265 
	C346.110107,456.416534 341.504456,458.974091 336.149750,459.939240 
	C329.754456,461.091980 326.356934,457.425873 327.274017,450.975220 
	C328.479736,442.494202 332.662567,435.311432 336.774231,428.061127 
	C337.813568,426.228394 339.432587,424.628693 339.496735,422.030060 
	C336.131897,420.204529 333.912384,422.563995 331.669159,424.267029 
	C323.089691,430.780304 316.587646,439.256775 309.988770,447.615143 
	C306.903900,451.522552 304.087280,455.640015 301.928253,460.069427 
	C297.610077,459.166656 297.610077,459.166656 296.654053,452.625305 
	C294.322754,452.489532 293.351929,454.608459 291.794434,455.667664 
	C288.461029,457.934601 285.081512,460.020050 281.029053,460.678345 
	C275.847412,461.520081 272.733398,459.658722 270.983765,454.743530 
	C269.268799,449.925598 268.674377,449.729401 264.616974,453.086121 
	C261.361511,455.779358 257.814789,457.951935 253.740524,459.023071 
	C248.413742,460.423492 245.371277,458.897095 243.722595,453.687500 
	C242.419708,449.570648 240.565552,450.235229 237.962463,452.277740 
	C234.041504,455.354309 230.230453,458.723785 224.976929,459.308685 
	C217.093964,460.186249 214.180542,456.790619 216.832382,449.367523 
	C218.899048,443.582367 221.264069,437.872772 224.614319,432.650543 
	C225.601944,431.111084 226.543167,429.534851 227.394775,427.917084 
	C228.305908,426.186279 228.672638,424.339142 226.900681,422.936462 
	C225.085083,421.499207 223.518356,422.568695 221.970413,423.714752 
	C213.424698,430.041473 206.867371,438.228821 200.556442,446.629852 
	C198.060928,449.951874 195.834030,453.474731 193.446869,456.879486 
	C192.516754,458.206085 191.676285,460.057739 189.569626,458.981445 
	C187.508850,457.928558 187.615662,456.052826 188.388474,454.211060 
	C190.963470,448.074432 193.135025,441.766693 196.363007,435.906647 
	C198.219788,432.535797 199.602173,428.958099 199.807083,425.046051 
	C199.995728,421.444519 198.435349,420.327301 195.277603,422.188995 
	C192.106155,424.058777 189.416748,426.524628 186.933853,429.272858 
	C178.675369,438.414001 171.384155,448.229797 166.043167,459.256653 
	C163.038605,458.766724 162.923401,457.046753 163.380905,455.085846 
	C166.484482,441.783142 172.400803,429.741760 180.027084,418.508514 
	C181.135864,416.875336 182.906815,415.601013 185.198410,416.372650 
	C186.957443,416.964996 187.190033,418.013672 186.683929,422.549805 
	C191.360580,419.356537 195.896347,415.262085 201.691422,416.661743 
	C208.995102,418.425812 206.004944,425.144653 206.713257,430.829010 
	C211.885803,426.504333 216.216705,422.157654 221.663895,419.377289 
	C223.141388,418.623138 224.591888,417.682373 226.170105,417.283112 
	C232.022354,415.802704 235.744873,419.276581 234.577896,425.189301 
	C233.245621,431.939545 230.165497,438.014313 226.981522,444.056915 
	C225.187714,447.461243 222.663177,450.779999 223.816238,455.653717 
	C231.222900,453.823456 236.010361,448.638153 241.057220,444.016388 
	C244.610886,440.762115 247.354187,436.774445 249.985840,432.677826 
	C258.372711,419.622375 272.289978,413.932709 285.399872,418.203979 
M276.753479,433.283691 
	C277.412476,432.327271 278.173615,431.424591 278.710938,430.404114 
	C280.195831,427.584198 284.059631,424.561523 281.794159,421.697601 
	C279.269257,418.505829 274.687317,420.362305 271.664307,422.105713 
	C260.493866,428.547882 253.319321,438.196442 250.438492,450.853760 
	C250.123749,452.236694 249.832428,453.966827 251.319519,454.985107 
	C252.865921,456.044037 254.183304,454.813354 255.430008,454.125366 
	C264.226410,449.271210 270.521881,441.801025 276.753479,433.283691 
z"/>
<path fill="#D4AF37" opacity="1.000000" stroke="none" 
	d="
M500.710480,407.133148 
	C494.936035,405.016907 489.649200,404.919556 484.395538,407.663513 
	C483.123383,408.328003 481.234955,409.029144 480.112152,408.559784 
	C474.135590,406.061676 472.716339,410.643433 470.529724,414.258453 
	C462.781097,427.068573 456.666016,440.853271 447.492035,452.813721 
	C442.531372,459.281128 436.424347,464.271301 428.981689,467.655975 
	C425.197418,469.376892 421.267426,469.677856 417.258698,469.152802 
	C415.523621,468.925507 413.838989,467.885468 414.386566,465.854034 
	C414.921539,463.869324 416.596313,464.643707 418.124969,464.949463 
	C426.188019,466.562073 431.190521,461.556580 435.921600,456.315491 
	C445.529816,445.671509 451.222198,432.566833 458.077332,420.229004 
	C468.670380,401.163605 478.803802,381.838043 492.277679,364.555634 
	C495.848022,359.976074 497.747345,358.652191 502.195679,357.222992 
	C503.094238,360.059235 501.244934,361.947723 499.908875,363.885742 
	C492.617706,374.461670 486.348206,385.630432 480.554382,397.073669 
	C479.830902,398.502625 478.676300,399.883972 479.177307,402.296692 
	C484.015717,401.762634 488.847351,401.040894 493.256836,398.859802 
	C502.987976,394.046509 512.244934,388.463837 520.196594,380.947784 
	C520.801758,380.375732 521.440491,379.835297 522.009216,379.229065 
	C533.065552,367.442841 530.181152,354.514435 515.223877,348.371246 
	C500.330902,342.254456 486.035095,345.583374 472.196960,351.532532 
	C457.374176,357.904999 444.810516,367.520996 436.358398,381.507660 
	C430.288147,391.552826 426.947601,402.452972 430.456573,414.382599 
	C432.350952,420.822876 436.935608,422.907318 442.979980,420.141602 
	C444.341370,419.518646 445.686310,418.850861 447.080048,418.309875 
	C448.498779,417.759155 450.213196,416.068817 451.305389,418.450226 
	C452.237213,420.481873 450.308960,421.531036 448.947021,422.275879 
	C438.154907,428.177795 425.337036,425.150726 423.747650,408.592651 
	C422.712891,397.812500 425.981018,387.925354 431.876465,379.293854 
	C446.533020,357.835388 467.018646,344.941162 492.827271,341.700500 
	C504.833527,340.192902 516.775574,342.108856 527.008179,349.633972 
	C536.929993,356.930511 538.842590,367.622192 532.495911,378.178101 
	C526.821167,387.616394 517.692017,392.807770 508.645325,398.134613 
	C506.538757,399.375000 504.068237,400.079010 502.962372,402.419922 
	C503.301147,403.930206 504.321136,404.364349 505.446106,404.838196 
	C521.552002,411.622223 526.769226,422.389740 521.585449,439.228821 
	C516.468506,455.850647 504.475342,466.222656 489.093628,473.047821 
	C481.139984,476.576996 472.836700,478.836365 463.944427,478.455170 
	C456.804718,478.149017 451.398865,475.249420 449.730804,470.298706 
	C447.653931,464.134613 449.855042,458.731873 455.894806,453.813110 
	C467.804443,444.114044 481.595886,438.628571 496.394958,435.394928 
	C500.033173,434.600037 503.869263,433.887970 507.407898,436.175049 
	C506.615601,438.501740 504.777344,438.116913 503.198486,438.364044 
	C487.278625,440.855865 472.775513,446.719635 460.046906,456.699493 
	C458.631989,457.808899 457.321747,459.198090 456.356140,460.708862 
	C452.206909,467.200287 455.161285,472.981232 462.862518,473.816437 
	C472.928497,474.908081 482.056183,472.090942 490.389099,466.798218 
	C503.855347,458.245056 512.655945,446.283203 514.611755,430.181274 
	C515.978455,418.929962 511.472961,411.898132 500.710480,407.133148 
z"/>
<path fill="#D4AF37" opacity="1.000000" stroke="none" 
	d="
M438.251984,612.584839 
	C451.799988,613.478394 464.853180,614.993408 477.790100,617.173828 
	C490.303284,619.282715 502.960938,619.244690 515.514893,620.611633 
	C531.779968,622.382507 548.048279,621.825989 564.250122,619.794617 
	C578.279053,618.035645 592.138977,615.494751 604.888245,608.882751 
	C606.330872,608.134644 607.729065,607.144836 611.312866,607.603699 
	C606.535828,610.527893 603.142334,613.364624 599.235901,614.872620 
	C574.828003,624.294617 549.546143,630.031616 523.322998,629.958557 
	C503.030823,629.902100 482.842041,627.657288 462.723419,624.785400 
	C451.378784,623.166077 439.899109,622.443481 428.464050,621.517273 
	C403.251556,619.475037 378.004486,617.400146 352.712555,617.549866 
	C312.011200,617.790710 271.715881,622.332275 232.013702,631.517029 
	C225.948654,632.920105 220.022079,634.921814 214.045547,636.642578 
	C213.548279,634.969788 214.388489,634.534790 215.073532,634.206543 
	C229.845078,627.128967 245.166443,622.131409 261.454590,619.444397 
	C289.890839,614.753174 318.474182,611.527222 347.216034,610.482422 
	C366.443604,609.783447 385.741638,609.127380 405.016724,610.346680 
	C415.952667,611.038513 426.932739,611.042358 438.251984,612.584839 
z"/>
<path fill="#D4AF37" opacity="1.000000" stroke="none" 
	d="
M77.349785,461.716492 
	C71.289597,463.673798 65.825645,463.090912 60.566883,460.295135 
	C56.756977,458.269623 54.441181,454.983734 53.820915,450.887360 
	C52.030701,439.064301 55.613834,429.268951 65.343407,421.902802 
	C75.209808,414.433136 86.736099,411.315887 98.571251,412.122131 
	C110.746712,412.951538 119.032379,410.091156 125.475555,398.894135 
	C132.329010,386.984222 141.191376,376.192169 149.562561,365.206116 
	C155.913681,356.871185 163.996353,350.423004 173.952744,346.771484 
	C180.243774,344.464203 183.107666,347.119904 181.933060,353.830505 
	C180.027023,364.719757 175.647079,374.846405 172.122589,385.233215 
	C169.877167,391.850494 167.427551,398.398315 165.111130,404.991882 
	C164.629333,406.363281 163.708008,407.931519 165.115906,409.170135 
	C166.425583,410.322357 167.995819,409.669403 169.329407,408.976410 
	C171.096313,408.058258 172.770737,406.963257 174.495361,405.962280 
	C176.018295,405.078339 177.699615,403.353424 179.137314,405.790802 
	C180.480087,408.067291 178.761078,409.963593 177.077606,410.723145 
	C173.767075,412.216858 170.220993,413.652008 166.661499,414.010559 
	C162.426880,414.437073 160.629044,416.707581 159.197922,420.190430 
	C154.442383,431.763794 150.830734,443.703522 147.631042,455.772552 
	C146.136032,461.411652 147.069870,464.374908 150.795944,467.547150 
	C147.368088,470.315582 143.812515,468.991974 142.157654,464.161896 
	C140.417435,459.082581 141.363525,453.914917 142.272873,448.862213 
	C143.930527,439.651550 147.903732,431.117126 150.456421,422.160492 
	C150.815308,420.901215 151.162155,419.638489 151.507233,418.403717 
	C149.663773,416.148102 147.219742,416.419037 144.969879,416.390167 
	C138.306488,416.304596 131.631271,416.573486 124.980682,416.268158 
	C120.927826,416.082153 118.544662,417.761139 116.424988,420.983185 
	C109.290855,431.827545 101.737747,442.365326 92.507080,451.586823 
	C88.213989,455.875671 83.392090,459.338959 77.349785,461.716492 
M101.253464,435.769409 
	C104.519363,430.769836 107.942039,425.863831 110.999931,420.740112 
	C113.309341,416.870575 112.574776,415.529175 108.308075,415.405060 
	C101.344070,415.202545 94.308975,414.781067 87.477684,416.460938 
	C74.013008,419.771973 62.327427,425.589569 58.011551,440.192993 
	C56.246372,446.165710 56.415462,452.141907 61.484604,456.769836 
	C65.851967,460.757019 70.595543,460.648224 77.630226,457.101685 
	C87.246819,452.253510 94.308670,444.616608 101.253464,435.769409 
M157.774521,403.454010 
	C161.367477,394.687653 165.013977,385.942719 168.535614,377.147797 
	C171.130539,370.667175 173.597992,364.134521 176.044220,357.595886 
	C176.739960,355.736206 177.581223,353.472046 175.971710,351.944733 
	C174.140320,350.206818 172.222122,352.055298 170.537643,352.907104 
	C163.905045,356.260986 158.465042,361.158142 153.680344,366.736755 
	C142.820694,379.398163 134.279144,393.708221 125.050636,407.525726 
	C124.172272,408.840881 122.900574,410.188660 123.988525,412.340912 
	C131.027985,413.844208 138.281296,413.452179 145.542282,413.080048 
	C154.479248,412.621979 154.480865,412.653534 157.774521,403.454010 
z"/>
<path fill="#D4AF37" opacity="1.000000" stroke="none" 
	d="
M262.674530,531.576294 
	C262.502563,535.354309 262.446655,538.682434 262.329407,542.008423 
	C262.195129,545.818115 262.341980,549.449219 268.400085,550.502136 
	C263.301392,552.731506 259.612915,552.382141 254.680618,551.111389 
	C260.211304,548.446777 259.641357,544.275940 259.822510,540.137146 
	C260.141876,532.839905 260.802338,525.550659 261.546692,518.281311 
	C262.121063,512.671814 261.780701,511.636993 256.802338,508.281555 
	C264.031128,506.201416 266.308777,507.220947 269.146912,513.477539 
	C272.447083,520.752625 275.876862,527.968933 279.254089,535.208984 
	C280.165802,537.163452 281.051331,539.144592 283.972900,540.428894 
	C286.179901,535.872925 288.449646,531.359192 290.564514,526.773987 
	C292.725586,522.088562 294.748383,517.338989 296.806793,512.606689 
	C299.562134,506.272064 301.183472,505.616089 308.847198,508.219879 
	C304.168579,510.214081 304.308380,514.003662 304.419189,517.894287 
	C304.655914,526.206421 303.949097,534.540100 304.994965,542.835327 
	C305.386658,545.941956 305.145142,549.359009 310.401428,550.401062 
	C304.432312,553.089050 299.725067,551.876160 294.586548,551.500244 
	C300.302521,547.944763 298.697937,542.565491 298.770020,537.681580 
	C298.851410,532.167480 298.788757,526.651184 297.815857,521.026855 
	C290.493103,530.532288 287.272766,541.759521 280.946625,552.925293 
	C275.558746,541.192749 270.633392,530.467346 265.399963,519.071106 
	C262.104523,523.260681 263.941284,527.512512 262.674530,531.576294 
z"/>
<path fill="#D4AF37" opacity="1.000000" stroke="none" 
	d="
M439.780701,536.738525 
	C435.098297,515.244690 450.441742,501.128815 471.421448,507.141052 
	C478.857422,509.271973 480.101501,511.937408 476.555298,518.154663 
	C475.559540,517.995117 475.306122,517.136780 475.002411,516.395752 
	C472.635712,510.620972 468.299011,507.967682 462.116455,508.078491 
	C455.521423,508.196777 451.197662,511.941559 448.350098,517.311401 
	C443.786987,525.916260 444.647369,534.719055 448.766083,543.237183 
	C452.066345,550.062622 465.409790,552.868896 471.243805,548.168579 
	C475.530060,544.715210 474.535431,536.160095 468.661255,531.795532 
	C473.422333,530.038940 477.606598,530.824951 482.516876,531.376526 
	C479.198914,535.928162 480.009186,540.551819 480.425415,545.089539 
	C480.581177,546.787903 481.172424,548.358154 479.067200,549.291199 
	C470.783752,552.962769 455.254150,555.205811 446.434967,546.996704 
	C443.433899,544.203247 441.227966,540.980347 439.780701,536.738525 
z"/>
<path fill="#D4AF37" opacity="1.000000" stroke="none" 
	d="
M181.341888,513.011963 
	C181.549500,517.228149 180.639755,521.076233 182.338394,524.974304 
	C183.292603,524.606567 184.072891,524.402649 184.759048,524.026855 
	C194.741013,518.559143 204.288757,524.231445 204.270020,535.633972 
	C204.251068,547.161865 196.504547,553.922546 185.094559,551.932983 
	C182.041168,551.400513 178.774582,552.941833 176.191742,551.241333 
	C176.807663,535.981018 177.951294,521.098633 174.562729,506.318268 
	C175.239517,504.199890 177.679123,503.662201 179.759918,504.280853 
	C182.171097,504.997681 181.106674,507.667755 181.326889,509.537292 
	C181.442886,510.522217 181.345993,511.532257 181.341888,513.011963 
M181.652328,532.460876 
	C181.550369,535.603455 181.378479,538.745789 181.364975,541.888733 
	C181.349655,545.451294 182.460236,548.273071 186.201416,549.680542 
	C190.245209,551.201782 193.366714,549.984131 195.858444,546.863281 
	C199.093979,542.810669 199.656433,538.054504 198.381195,533.207458 
	C197.393280,529.452454 195.694626,525.726562 191.169617,525.334045 
	C186.516953,524.930542 183.321289,527.327637 181.652328,532.460876 
z"/>
<path fill="#D4AF37" opacity="1.000000" stroke="none" 
	d="
M319.003784,523.956665 
	C329.506226,518.208923 337.066132,522.789978 337.060120,534.486206 
	C337.058746,537.143860 337.054413,539.802551 337.125793,542.458801 
	C337.208984,545.554871 336.761353,548.924744 341.245056,549.972717 
	C338.767303,553.020325 336.067230,552.920410 333.804596,551.481018 
	C331.454956,549.986206 329.718811,550.358154 327.424530,551.405396 
	C322.199554,553.790405 317.575836,552.452454 315.850830,548.416016 
	C313.802277,543.622437 315.889709,539.457092 321.553528,537.233337 
	C323.711334,536.386169 325.929138,535.677979 328.151062,535.011292 
	C331.099152,534.126648 331.971985,532.057312 331.592529,529.249207 
	C331.237640,526.622681 330.238770,524.274353 327.387360,523.704529 
	C324.567078,523.140808 322.622314,524.631226 321.526642,527.210266 
	C320.831635,528.846252 320.678650,530.945618 318.315582,531.140259 
	C317.252594,531.227844 316.316986,530.702820 316.033173,529.603271 
	C315.381714,527.079590 316.963531,525.574158 319.003784,523.956665 
M327.657593,538.174255 
	C326.566681,538.542114 325.363129,538.726807 324.407257,539.314392 
	C322.110870,540.726074 320.570618,542.711487 321.667786,545.554382 
	C322.438995,547.552734 324.124542,548.943481 326.330200,548.597229 
	C329.275513,548.134888 330.921478,545.922607 331.476990,543.150269 
	C331.959717,540.741272 331.852570,538.323914 327.657593,538.174255 
z"/>
<path fill="#D4AF37" opacity="1.000000" stroke="none" 
	d="
M490.842468,547.218872 
	C490.585602,540.425171 492.435577,538.313049 501.019073,535.797913 
	C504.683868,534.724182 507.665558,533.465393 506.796051,528.756348 
	C506.332977,526.248535 505.241547,524.180176 502.638672,523.763733 
	C500.021057,523.344971 498.265747,524.896851 497.299042,527.304199 
	C496.633026,528.962830 496.398468,531.024292 493.970032,531.088013 
	C492.624939,531.123413 491.756073,530.420349 491.588257,529.053711 
	C491.309143,526.781067 492.542419,525.276550 494.266388,524.071655 
	C498.066223,521.416077 502.231781,520.561035 506.512939,522.452087 
	C510.638428,524.274353 511.959229,528.083923 512.156982,532.282288 
	C512.321106,535.767273 512.358398,539.266052 512.258179,542.753235 
	C512.165283,545.990540 512.664246,548.757019 516.720093,549.707336 
	C514.554077,553.231384 511.544830,552.988403 509.275757,551.559814 
	C506.870178,550.045288 505.277466,550.439453 502.979645,551.481628 
	C497.637543,553.904419 493.669922,552.464111 490.842468,547.218872 
M506.585510,540.030518 
	C504.052094,536.720825 501.394958,538.048279 498.859100,539.942139 
	C497.373993,541.051208 496.097778,542.461487 496.659515,544.591064 
	C497.150696,546.453125 498.165924,547.995422 500.096619,548.548767 
	C502.331665,549.189270 503.899017,547.977966 505.262970,546.357422 
	C506.638794,544.722778 507.158539,542.884033 506.585510,540.030518 
z"/>
<path fill="#D4AF37" opacity="1.000000" stroke="none" 
	d="
M412.182861,535.175842 
	C412.196747,538.142029 412.179993,540.640076 412.243134,543.136108 
	C412.321106,546.220215 411.261047,550.048767 417.006500,549.251282 
	C415.182892,553.068726 412.040955,553.157898 410.334656,551.892212 
	C406.980713,549.404175 404.528564,550.775085 401.362885,551.913208 
	C398.077698,553.094299 394.209045,553.242554 391.925049,549.669128 
	C389.853424,546.427979 390.126312,542.998230 392.604889,539.926575 
	C393.560944,538.741760 394.829559,537.978027 396.295410,537.475281 
	C398.653015,536.666687 400.944458,535.661865 403.311676,534.885681 
	C406.211792,533.934692 407.086334,531.905334 406.785797,529.079041 
	C406.493774,526.332703 405.287903,524.185242 402.459808,523.664917 
	C399.718262,523.160583 398.259979,525.135071 397.053558,527.236938 
	C396.211182,528.704468 396.497375,531.121094 393.876831,531.093689 
	C392.732117,531.081787 392.006287,530.420227 391.830353,529.304077 
	C391.478333,527.071106 392.603149,525.445435 394.211945,524.124023 
	C397.573700,521.362671 401.564178,520.699768 405.510193,521.977661 
	C409.472351,523.260864 411.511902,526.537170 411.898682,530.724854 
	C412.021027,532.049805 412.092743,533.379395 412.182861,535.175842 
M398.649017,547.864563 
	C402.581390,549.997498 404.776184,547.489746 406.125366,544.519226 
	C407.183350,542.189880 407.956970,538.992737 403.964233,538.220886 
	C401.010681,537.649963 398.890015,539.486633 397.234375,541.712097 
	C395.661591,543.826111 396.175507,545.764832 398.649017,547.864563 
z"/>
<path fill="#D4AF37" opacity="1.000000" stroke="none" 
	d="
M614.033203,526.193970 
	C616.657837,531.563904 615.538147,536.992981 615.945496,542.242493 
	C616.190430,545.398315 615.894775,548.668152 620.240723,549.848572 
	C617.767639,552.940613 614.978821,553.080200 612.889648,551.403076 
	C610.517883,549.499084 608.941223,550.178284 606.715210,551.283752 
	C602.005005,553.622925 597.208435,552.366516 595.440369,548.648865 
	C593.109070,543.747192 594.964905,539.569702 600.594788,537.203613 
	C602.274719,536.497559 603.984619,535.708496 605.757202,535.407349 
	C610.217224,534.649841 610.930908,532.019165 609.962891,528.148804 
	C609.401062,525.902527 608.632812,523.805908 606.068665,523.622375 
	C603.359375,523.428467 601.245850,524.666443 600.360535,527.453979 
	C599.877869,528.973572 599.993774,530.954895 597.710510,531.123230 
	C596.607483,531.204468 595.761292,530.600159 595.396667,529.577209 
	C594.673035,527.546936 595.683899,526.001221 597.092102,524.734863 
	C602.683838,519.706421 610.428528,519.812195 614.033203,526.193970 
M601.504211,547.162170 
	C604.177246,549.226074 606.751343,549.367126 608.803528,546.411133 
	C610.475586,544.002747 611.699097,541.199097 609.344055,538.653198 
	C607.207764,536.343811 604.996521,538.191467 603.116455,539.453308 
	C600.488953,541.216797 598.195496,543.265320 601.504211,547.162170 
z"/>
<path fill="#D4AF37" opacity="1.000000" stroke="none" 
	d="
M207.985291,525.968750 
	C207.128723,524.573120 205.378693,524.444458 205.133240,522.536011 
	C208.564880,521.170532 211.917236,522.191589 215.540329,521.989380 
	C213.854691,530.550842 219.348373,536.198486 222.403259,544.328674 
	C226.473007,536.633362 230.601425,530.570740 227.694534,522.452026 
	C230.424789,521.347778 233.153305,521.970764 236.578079,521.922424 
	C230.203186,529.810486 228.593185,539.049683 224.905579,547.381348 
	C222.824890,552.082458 220.444901,556.661377 217.994415,561.184021 
	C216.798965,563.390259 214.959320,565.202942 212.472183,565.993591 
	C210.886169,566.497864 209.168259,566.666748 207.754883,565.411560 
	C206.933548,564.682068 206.716644,563.680237 207.192123,562.694092 
	C208.112076,560.785950 209.626923,561.152954 211.419113,561.340820 
	C215.659470,561.785461 220.782166,554.525879 219.020218,550.329529 
	C215.617081,542.224365 211.836349,534.277710 207.985291,525.968750 
z"/>
<path fill="#D4AF37" opacity="1.000000" stroke="none" 
	d="
M381.160583,534.019653 
	C381.147980,537.339966 381.282562,540.180603 381.097107,543.000244 
	C380.911560,545.821106 382.200592,548.110901 383.561646,550.579651 
	C380.014954,552.967102 376.548645,552.234497 372.489746,551.310242 
	C376.500244,544.883972 374.794098,537.922424 375.587524,531.281616 
	C375.765869,529.788635 375.528870,528.307129 374.764740,526.931274 
	C371.753174,521.508606 376.508331,510.533356 382.440460,509.093018 
	C383.776154,508.768707 384.775208,509.007874 385.238098,510.364319 
	C385.745392,511.850952 385.913391,513.361572 384.402557,514.418335 
	C381.978455,516.113770 379.510437,517.746399 376.585785,519.727539 
	C383.353912,522.981750 380.640411,528.711731 381.160583,534.019653 
z"/>
<path fill="#D4AF37" opacity="1.000000" stroke="none" 
	d="
M552.861328,544.079834 
	C558.395752,549.551575 559.544128,549.442200 569.923401,542.766968 
	C569.368042,550.401184 559.357239,555.213440 552.131348,551.319824 
	C546.067017,548.052002 543.322266,538.793701 546.091919,530.948364 
	C548.286499,524.732056 556.033264,520.371033 562.527344,521.611755 
	C565.481873,522.176208 567.774902,523.759277 569.431824,526.123718 
	C570.561829,527.736145 570.765259,529.778748 568.719482,530.863281 
	C566.685425,531.941650 565.580444,530.402527 565.167053,528.647034 
	C564.491516,525.778809 563.188416,523.533630 559.958069,523.617371 
	C556.632202,523.703491 553.703735,525.086609 552.190369,528.199097 
	C549.658691,533.406067 549.126831,538.686646 552.861328,544.079834 
z"/>
<path fill="#D4AF37" opacity="1.000000" stroke="none" 
	d="
M585.215210,528.284058 
	C585.146179,533.393005 585.025696,538.037476 585.007141,542.682312 
	C584.995911,545.490967 584.960815,548.359070 588.065735,550.347900 
	C584.081421,552.636658 580.406311,552.121277 575.982788,551.765076 
	C581.559143,544.652405 579.079834,536.882080 579.571594,529.505066 
	C579.613525,528.875793 579.373413,528.190369 579.129944,527.585083 
	C575.907288,519.572144 576.904236,515.919556 583.797363,510.760223 
	C585.311523,509.626923 587.291809,508.529633 588.657776,510.206848 
	C590.182190,512.078613 588.969238,513.898926 587.074524,515.161377 
	C585.172424,516.428833 582.925293,517.297852 581.572327,519.849670 
	C584.440491,521.679443 585.387634,524.518982 585.215210,528.284058 
z"/>
<path fill="#D4AF37" opacity="1.000000" stroke="none" 
	d="
M524.651978,542.544067 
	C524.656921,538.937317 524.582703,535.778564 524.675537,532.624634 
	C524.767151,529.510132 524.435547,526.619568 521.119690,524.637512 
	C524.163757,522.147278 526.814819,520.434937 530.095215,523.207397 
	C531.815125,524.661011 533.151794,523.633850 534.607483,522.853027 
	C536.782349,521.686401 539.028320,521.131836 541.102966,522.922241 
	C542.406677,524.047302 543.318542,525.683472 542.463623,527.337646 
	C541.668396,528.876221 540.027039,528.646301 538.482422,528.245728 
	C533.770691,527.023804 531.202148,528.506653 530.505981,533.229858 
	C529.950867,536.995605 529.782532,540.832336 529.667725,544.644348 
	C529.577942,547.625000 531.744263,549.250061 534.749390,550.662109 
	C530.121155,552.748901 526.088074,552.160034 521.451538,551.752625 
	C523.198364,548.782104 524.942200,546.197327 524.651978,542.544067 
z"/>
<path fill="#D4AF37" opacity="1.000000" stroke="none" 
	d="
M348.755432,528.232422 
	C347.825104,526.685974 347.000549,525.493225 346.170654,524.292725 
	C351.241699,521.152832 351.962830,521.197510 356.209930,524.888794 
	C357.743073,524.021667 359.270782,523.004578 360.921478,522.260071 
	C363.358734,521.160828 365.539856,521.696655 367.015533,523.982544 
	C367.765930,525.144958 367.880066,526.551514 366.868835,527.709045 
	C365.835388,528.891968 364.538330,529.064209 363.343201,528.007996 
	C359.826874,524.900330 357.894501,527.530579 356.203949,530.090515 
	C352.527832,535.656982 353.617767,546.122009 358.412689,550.961792 
	C354.477539,552.673828 350.639526,552.124512 346.573029,551.572388 
	C350.215790,543.999878 348.972687,536.241455 348.755432,528.232422 
z"/>
<path fill="#D4AF37" opacity="1.000000" stroke="none" 
	d="
M377.834473,408.988953 
	C377.546143,407.862305 377.263458,407.023254 377.377075,406.241791 
	C377.754883,403.642303 379.468658,402.615723 381.967102,402.731903 
	C383.962799,402.824738 385.173126,404.008972 385.061066,405.898071 
	C384.907349,408.490326 383.413696,410.200592 380.675964,410.435089 
	C379.655029,410.522522 378.720306,410.117371 377.834473,408.988953 
z"/>
</svg>